{
    "asset" : {
        "generator" : "Khronos Blender glTF 2.0 I/O",
        "version" : "2.0"
    },
    "scene" : 0,
    "scenes" : [
        {
            "name" : "Scene",
            "nodes" : [
                11
            ]
        }
    ],
    "nodes" : [
        {
            "name" : "Bone.001_end",
            "rotation" : [
                0,
                -6.245004513516506e-17,
                -5.30825383648903e-15,
                1
            ],
            "translation" : [
                6.078471059822732e-14,
                0.5569857954978943,
                -1.609823385706477e-15
            ]
        },
        {
            "children" : [
                0
            ],
            "name" : "Bone.001",
            "rotation" : [
                -0.2377387285232544,
                0.004787055775523186,
                -0.00836203247308731,
                0.9712814688682556
            ],
            "scale" : [
                1.0000001192092896,
                0.9999999403953552,
                1
            ],
            "translation" : [
                5.663294472594248e-14,
                0.7180840969085693,
                -2.834596379841514e-08
            ]
        },
        {
            "name" : "Bone.004_end",
            "rotation" : [
                -1.3969838619232178e-07,
                4.749745485810308e-08,
                6.519258732851085e-08,
                1
            ],
            "scale" : [
                0.9999999403953552,
                0.9999999403953552,
                1
            ],
            "translation" : [
                -4.284083843231201e-08,
                0.5850857496261597,
                1.4901161193847656e-08
            ]
        },
        {
            "children" : [
                2
            ],
            "name" : "Bone.004",
            "rotation" : [
                -0.11974489688873291,
                0.01348598301410675,
                -0.17951688170433044,
                0.9763467907905579
            ],
            "scale" : [
                0.9999998807907104,
                1.0000001192092896,
                1
            ],
            "translation" : [
                2.990708480865578e-08,
                0.19191740453243256,
                4.637090000869648e-08
            ]
        },
        {
            "children" : [
                3
            ],
            "name" : "Bone.002",
            "rotation" : [
                -0.48743391036987305,
                0.38057681918144226,
                0.4836253225803375,
                0.6194159388542175
            ],
            "scale" : [
                1,
                0.9999998211860657,
                1
            ],
            "translation" : [
                -4.8189008339249995e-11,
                0.7180840373039246,
                -3.199935605380233e-08
            ]
        },
        {
            "name" : "Bone.005_end",
            "rotation" : [
                5.587935447692871e-09,
                -1.3969838619232178e-09,
                6.658956408500671e-08,
                1
            ],
            "translation" : [
                8.381903171539307e-09,
                0.5850858092308044,
                8.195638656616211e-08
            ]
        },
        {
            "children" : [
                5
            ],
            "name" : "Bone.005",
            "rotation" : [
                -0.11974500119686127,
                -0.013486064039170742,
                0.17951679229736328,
                0.9763467907905579
            ],
            "scale" : [
                0.9999998211860657,
                0.9999998211860657,
                0.9999998211860657
            ],
            "translation" : [
                -1.2432765927883338e-08,
                0.19191785156726837,
                8.172482779400525e-08
            ]
        },
        {
            "children" : [
                6
            ],
            "name" : "Bone.003",
            "rotation" : [
                -0.48743391036987305,
                -0.38057681918144226,
                -0.48362529277801514,
                0.6194158792495728
            ],
            "scale" : [
                0.9999999403953552,
                1.0000001192092896,
                1.0000001192092896
            ],
            "translation" : [
                3.566092310336444e-09,
                0.7180840969085693,
                1.889959477807679e-08
            ]
        },
        {
            "children" : [
                1,
                4,
                7
            ],
            "name" : "Bone",
            "rotation" : [
                -0.11840233951807022,
                1.563220108913299e-10,
                4.518742602321879e-10,
                0.9929656982421875
            ],
            "scale" : [
                1.0000001192092896,
                1,
                1.0000001192092896
            ],
            "translation" : [
                7.124246735623098e-15,
                -2.8018795339152924e-15,
                -8.053047161407645e-15
            ]
        },
        {
            "mesh" : 0,
            "name" : "Bird",
            "rotation" : [
                0,
                1,
                0,
                -8.483681313009583e-08
            ],
            "scale" : [
                0.0045662918128073215,
                0.004566291347146034,
                0.004566289484500885
            ],
            "skin" : 0,
            "translation" : [
                -0.0027093887329101562,
                0.5158666372299194,
                0.10033392161130905
            ]
        },
        {
            "children" : [
                9,
                8
            ],
            "name" : "Armature",
            "rotation" : [
                0.4891161322593689,
                0.5106538534164429,
                -0.5106207132339478,
                0.48914673924446106
            ],
            "scale" : [
                0.21483704447746277,
                0.21483704447746277,
                0.21483701467514038
            ],
            "translation" : [
                -0.059872716665267944,
                0.03659334033727646,
                -1.9690618515014648
            ]
        },
        {
            "children" : [
                10
            ],
            "name" : "BezierCurve",
            "translation" : [
                0.001836240291595459,
                0.08159507811069489,
                0.9605125784873962
            ]
        }
    ],
    "animations" : [
        {
            "channels" : [
                {
                    "sampler" : 0,
                    "target" : {
                        "node" : 7,
                        "path" : "translation"
                    }
                },
                {
                    "sampler" : 1,
                    "target" : {
                        "node" : 7,
                        "path" : "rotation"
                    }
                },
                {
                    "sampler" : 2,
                    "target" : {
                        "node" : 7,
                        "path" : "scale"
                    }
                },
                {
                    "sampler" : 3,
                    "target" : {
                        "node" : 1,
                        "path" : "translation"
                    }
                },
                {
                    "sampler" : 4,
                    "target" : {
                        "node" : 1,
                        "path" : "rotation"
                    }
                },
                {
                    "sampler" : 5,
                    "target" : {
                        "node" : 1,
                        "path" : "scale"
                    }
                },
                {
                    "sampler" : 6,
                    "target" : {
                        "node" : 4,
                        "path" : "translation"
                    }
                },
                {
                    "sampler" : 7,
                    "target" : {
                        "node" : 4,
                        "path" : "rotation"
                    }
                },
                {
                    "sampler" : 8,
                    "target" : {
                        "node" : 4,
                        "path" : "scale"
                    }
                },
                {
                    "sampler" : 9,
                    "target" : {
                        "node" : 6,
                        "path" : "translation"
                    }
                },
                {
                    "sampler" : 10,
                    "target" : {
                        "node" : 6,
                        "path" : "rotation"
                    }
                },
                {
                    "sampler" : 11,
                    "target" : {
                        "node" : 6,
                        "path" : "scale"
                    }
                },
                {
                    "sampler" : 12,
                    "target" : {
                        "node" : 8,
                        "path" : "translation"
                    }
                },
                {
                    "sampler" : 13,
                    "target" : {
                        "node" : 8,
                        "path" : "rotation"
                    }
                },
                {
                    "sampler" : 14,
                    "target" : {
                        "node" : 8,
                        "path" : "scale"
                    }
                },
                {
                    "sampler" : 15,
                    "target" : {
                        "node" : 3,
                        "path" : "translation"
                    }
                },
                {
                    "sampler" : 16,
                    "target" : {
                        "node" : 3,
                        "path" : "rotation"
                    }
                },
                {
                    "sampler" : 17,
                    "target" : {
                        "node" : 3,
                        "path" : "scale"
                    }
                },
                {
                    "sampler" : 18,
                    "target" : {
                        "node" : 10,
                        "path" : "translation"
                    }
                },
                {
                    "sampler" : 19,
                    "target" : {
                        "node" : 10,
                        "path" : "rotation"
                    }
                },
                {
                    "sampler" : 20,
                    "target" : {
                        "node" : 10,
                        "path" : "scale"
                    }
                }
            ],
            "name" : "fly",
            "samplers" : [
                {
                    "input" : 8,
                    "interpolation" : "STEP",
                    "output" : 9
                },
                {
                    "input" : 8,
                    "interpolation" : "STEP",
                    "output" : 10
                },
                {
                    "input" : 8,
                    "interpolation" : "STEP",
                    "output" : 11
                },
                {
                    "input" : 8,
                    "interpolation" : "STEP",
                    "output" : 12
                },
                {
                    "input" : 8,
                    "interpolation" : "STEP",
                    "output" : 13
                },
                {
                    "input" : 8,
                    "interpolation" : "STEP",
                    "output" : 14
                },
                {
                    "input" : 8,
                    "interpolation" : "STEP",
                    "output" : 15
                },
                {
                    "input" : 8,
                    "interpolation" : "STEP",
                    "output" : 16
                },
                {
                    "input" : 8,
                    "interpolation" : "STEP",
                    "output" : 17
                },
                {
                    "input" : 8,
                    "interpolation" : "STEP",
                    "output" : 18
                },
                {
                    "input" : 8,
                    "interpolation" : "STEP",
                    "output" : 19
                },
                {
                    "input" : 8,
                    "interpolation" : "STEP",
                    "output" : 20
                },
                {
                    "input" : 8,
                    "interpolation" : "STEP",
                    "output" : 21
                },
                {
                    "input" : 8,
                    "interpolation" : "STEP",
                    "output" : 22
                },
                {
                    "input" : 8,
                    "interpolation" : "STEP",
                    "output" : 23
                },
                {
                    "input" : 8,
                    "interpolation" : "STEP",
                    "output" : 24
                },
                {
                    "input" : 8,
                    "interpolation" : "STEP",
                    "output" : 25
                },
                {
                    "input" : 8,
                    "interpolation" : "STEP",
                    "output" : 26
                },
                {
                    "input" : 8,
                    "interpolation" : "STEP",
                    "output" : 27
                },
                {
                    "input" : 8,
                    "interpolation" : "STEP",
                    "output" : 28
                },
                {
                    "input" : 8,
                    "interpolation" : "STEP",
                    "output" : 29
                }
            ]
        }
    ],
    "materials" : [
        {
            "name" : "Material.001",
            "pbrMetallicRoughness" : {
                "baseColorTexture" : {
                    "index" : 0,
                    "texCoord" : 0
                },
                "metallicFactor" : 0,
                "roughnessFactor" : 0.5
            }
        }
    ],
    "meshes" : [
        {
            "name" : "Mesh.002",
            "primitives" : [
                {
                    "attributes" : {
                        "POSITION" : 0,
                        "NORMAL" : 1,
                        "TEXCOORD_0" : 2,
                        "COLOR_0" : 3,
                        "JOINTS_0" : 4,
                        "WEIGHTS_0" : 5
                    },
                    "indices" : 6,
                    "material" : 0
                }
            ]
        }
    ],
    "textures" : [
        {
            "source" : 0
        }
    ],
    "images" : [
        {
            "bufferView" : 7,
            "mimeType" : "image/png",
            "name" : "BirdBaseColor.png"
        }
    ],
    "skins" : [
        {
            "inverseBindMatrices" : 7,
            "joints" : [
                8,
                1,
                0,
                4,
                3,
                2,
                7,
                6,
                5
            ],
            "name" : "Armature"
        }
    ],
    "accessors" : [
        {
            "bufferView" : 0,
            "componentType" : 5126,
            "count" : 465,
            "max" : [
                216.11228942871094,
                182.71505737304688,
                183.99725341796875
            ],
            "min" : [
                -216.11231994628906,
                -184.21058654785156,
                -67.04578399658203
            ],
            "type" : "VEC3"
        },
        {
            "bufferView" : 1,
            "componentType" : 5126,
            "count" : 465,
            "type" : "VEC3"
        },
        {
            "bufferView" : 2,
            "componentType" : 5126,
            "count" : 465,
            "type" : "VEC2"
        },
        {
            "bufferView" : 3,
            "componentType" : 5126,
            "count" : 465,
            "type" : "VEC4"
        },
        {
            "bufferView" : 4,
            "componentType" : 5123,
            "count" : 465,
            "type" : "VEC4"
        },
        {
            "bufferView" : 5,
            "componentType" : 5126,
            "count" : 465,
            "type" : "VEC4"
        },
        {
            "bufferView" : 6,
            "componentType" : 5123,
            "count" : 495,
            "type" : "SCALAR"
        },
        {
            "bufferView" : 8,
            "componentType" : 5126,
            "count" : 9,
            "type" : "MAT4"
        },
        {
            "bufferView" : 9,
            "componentType" : 5126,
            "count" : 4771,
            "max" : [
                5.333333333333116
            ],
            "min" : [
                0.03333333333333333
            ],
            "type" : "SCALAR"
        },
        {
            "bufferView" : 10,
            "componentType" : 5126,
            "count" : 4771,
            "type" : "VEC3"
        },
        {
            "bufferView" : 11,
            "componentType" : 5126,
            "count" : 4771,
            "type" : "VEC4"
        },
        {
            "bufferView" : 12,
            "componentType" : 5126,
            "count" : 4771,
            "type" : "VEC3"
        },
        {
            "bufferView" : 13,
            "componentType" : 5126,
            "count" : 4771,
            "type" : "VEC3"
        },
        {
            "bufferView" : 14,
            "componentType" : 5126,
            "count" : 4771,
            "type" : "VEC4"
        },
        {
            "bufferView" : 15,
            "componentType" : 5126,
            "count" : 4771,
            "type" : "VEC3"
        },
        {
            "bufferView" : 16,
            "componentType" : 5126,
            "count" : 4771,
            "type" : "VEC3"
        },
        {
            "bufferView" : 17,
            "componentType" : 5126,
            "count" : 4771,
            "type" : "VEC4"
        },
        {
            "bufferView" : 18,
            "componentType" : 5126,
            "count" : 4771,
            "type" : "VEC3"
        },
        {
            "bufferView" : 19,
            "componentType" : 5126,
            "count" : 4771,
            "type" : "VEC3"
        },
        {
            "bufferView" : 20,
            "componentType" : 5126,
            "count" : 4771,
            "type" : "VEC4"
        },
        {
            "bufferView" : 21,
            "componentType" : 5126,
            "count" : 4771,
            "type" : "VEC3"
        },
        {
            "bufferView" : 22,
            "componentType" : 5126,
            "count" : 4771,
            "type" : "VEC3"
        },
        {
            "bufferView" : 23,
            "componentType" : 5126,
            "count" : 4771,
            "type" : "VEC4"
        },
        {
            "bufferView" : 24,
            "componentType" : 5126,
            "count" : 4771,
            "type" : "VEC3"
        },
        {
            "bufferView" : 25,
            "componentType" : 5126,
            "count" : 4771,
            "type" : "VEC3"
        },
        {
            "bufferView" : 26,
            "componentType" : 5126,
            "count" : 4771,
            "type" : "VEC4"
        },
        {
            "bufferView" : 27,
            "componentType" : 5126,
            "count" : 4771,
            "type" : "VEC3"
        },
        {
            "bufferView" : 28,
            "componentType" : 5126,
            "count" : 4771,
            "type" : "VEC3"
        },
        {
            "bufferView" : 29,
            "componentType" : 5126,
            "count" : 4771,
            "type" : "VEC4"
        },
        {
            "bufferView" : 30,
            "componentType" : 5126,
            "count" : 4771,
            "type" : "VEC3"
        }
    ],
    "bufferViews" : [
        {
            "buffer" : 0,
            "byteLength" : 5580,
            "byteOffset" : 0
        },
        {
            "buffer" : 0,
            "byteLength" : 5580,
            "byteOffset" : 5580
        },
        {
            "buffer" : 0,
            "byteLength" : 3720,
            "byteOffset" : 11160
        },
        {
            "buffer" : 0,
            "byteLength" : 7440,
            "byteOffset" : 14880
        },
        {
            "buffer" : 0,
            "byteLength" : 3720,
            "byteOffset" : 22320
        },
        {
            "buffer" : 0,
            "byteLength" : 7440,
            "byteOffset" : 26040
        },
        {
            "buffer" : 0,
            "byteLength" : 990,
            "byteOffset" : 33480
        },
        {
            "buffer" : 0,
            "byteLength" : 1741,
            "byteOffset" : 34472
        },
        {
            "buffer" : 0,
            "byteLength" : 576,
            "byteOffset" : 36216
        },
        {
            "buffer" : 0,
            "byteLength" : 19084,
            "byteOffset" : 36792
        },
        {
            "buffer" : 0,
            "byteLength" : 57252,
            "byteOffset" : 55876
        },
        {
            "buffer" : 0,
            "byteLength" : 76336,
            "byteOffset" : 113128
        },
        {
            "buffer" : 0,
            "byteLength" : 57252,
            "byteOffset" : 189464
        },
        {
            "buffer" : 0,
            "byteLength" : 57252,
            "byteOffset" : 246716
        },
        {
            "buffer" : 0,
            "byteLength" : 76336,
            "byteOffset" : 303968
        },
        {
            "buffer" : 0,
            "byteLength" : 57252,
            "byteOffset" : 380304
        },
        {
            "buffer" : 0,
            "byteLength" : 57252,
            "byteOffset" : 437556
        },
        {
            "buffer" : 0,
            "byteLength" : 76336,
            "byteOffset" : 494808
        },
        {
            "buffer" : 0,
            "byteLength" : 57252,
            "byteOffset" : 571144
        },
        {
            "buffer" : 0,
            "byteLength" : 57252,
            "byteOffset" : 628396
        },
        {
            "buffer" : 0,
            "byteLength" : 76336,
            "byteOffset" : 685648
        },
        {
            "buffer" : 0,
            "byteLength" : 57252,
            "byteOffset" : 761984
        },
        {
            "buffer" : 0,
            "byteLength" : 57252,
            "byteOffset" : 819236
        },
        {
            "buffer" : 0,
            "byteLength" : 76336,
            "byteOffset" : 876488
        },
        {
            "buffer" : 0,
            "byteLength" : 57252,
            "byteOffset" : 952824
        },
        {
            "buffer" : 0,
            "byteLength" : 57252,
            "byteOffset" : 1010076
        },
        {
            "buffer" : 0,
            "byteLength" : 76336,
            "byteOffset" : 1067328
        },
        {
            "buffer" : 0,
            "byteLength" : 57252,
            "byteOffset" : 1143664
        },
        {
            "buffer" : 0,
            "byteLength" : 57252,
            "byteOffset" : 1200916
        },
        {
            "buffer" : 0,
            "byteLength" : 76336,
            "byteOffset" : 1258168
        },
        {
            "buffer" : 0,
            "byteLength" : 57252,
            "byteOffset" : 1334504
        }
    ],
    "buffers" : [
        {
            "byteLength" : 1391756,
            "uri" : "data:application/octet-stream;base64,"
        }
    ]
}
