{
    "asset" : {
        "generator" : "Khronos Blender glTF 2.0 I/O",
        "version" : "2.0"
    },
    "scene" : 0,
    "scenes" : [
        {
            "name" : "Scene",
            "nodes" : [
                13
            ]
        }
    ],
    "nodes" : [
        {
            "name" : "Bone.001_end",
            "rotation" : [
                8.496756720433041e-08,
                -4.7349146825581556e-08,
                -2.5671040848607163e-09,
                1
            ],
            "scale" : [
                0.9999999403953552,
                0.9999998807907104,
                0.9999999403953552
            ],
            "translation" : [
                3.991765424871119e-06,
                121.97760772705078,
                1.4368524716701359e-05
            ]
        },
        {
            "children" : [
                0
            ],
            "name" : "Bone.001",
            "rotation" : [
                -0.23773805797100067,
                0.004781702999025583,
                -0.008364001289010048,
                0.9712815284729004
            ],
            "scale" : [
                0.9999999403953552,
                0.9999999403953552,
                0.9999995827674866
            ],
            "translation" : [
                0.00020441973174456507,
                157.25762939453125,
                -4.3959400500170887e-05
            ]
        },
        {
            "name" : "Bone.004_end",
            "rotation" : [
                -2.1124284899087797e-07,
                6.758957482588812e-08,
                2.0374159248603974e-07,
                1
            ],
            "scale" : [
                0.9999999403953552,
                0.9999998211860657,
                1.0000001192092896
            ],
            "translation" : [
                -5.957428220426664e-05,
                128.13133239746094,
                -1.2380379303067457e-05
            ]
        },
        {
            "children" : [
                2
            ],
            "name" : "Bone.004",
            "rotation" : [
                -0.11974529922008514,
                0.013485481031239033,
                -0.17951686680316925,
                0.9763467311859131
            ],
            "scale" : [
                0.9999998807907104,
                1.0000001192092896,
                1.000000238418579
            ],
            "translation" : [
                1.816401709220372e-05,
                42.02925109863281,
                -3.9346006815321743e-05
            ]
        },
        {
            "children" : [
                3
            ],
            "name" : "Bone.002",
            "rotation" : [
                -0.4874363839626312,
                0.3805745840072632,
                0.48362210392951965,
                0.6194178462028503
            ],
            "scale" : [
                1,
                0.9999999403953552,
                0.9999995231628418
            ],
            "translation" : [
                0.00020113894424866885,
                157.2576141357422,
                -4.240048656356521e-05
            ]
        },
        {
            "name" : "Bone.005_end",
            "rotation" : [
                -5.384648460449171e-08,
                4.0842628834525385e-08,
                1.709133279348407e-08,
                1
            ],
            "scale" : [
                0.9999998807907104,
                1.0000001192092896,
                1.0000003576278687
            ],
            "translation" : [
                -1.0108559536092798e-06,
                128.13145446777344,
                8.599138709541876e-06
            ]
        },
        {
            "children" : [
                5
            ],
            "name" : "Bone.005",
            "rotation" : [
                -0.11974459141492844,
                -0.013485224917531013,
                0.1795169860124588,
                0.9763467907905579
            ],
            "scale" : [
                0.9999998211860657,
                1,
                0.9999998211860657
            ],
            "translation" : [
                -5.546220563701354e-05,
                42.029273986816406,
                3.063624171772972e-05
            ]
        },
        {
            "children" : [
                6
            ],
            "name" : "Bone.003",
            "rotation" : [
                -0.48743191361427307,
                -0.3805810511112213,
                -0.48362839221954346,
                0.6194124817848206
            ],
            "scale" : [
                0.9999997615814209,
                0.9999999403953552,
                0.9999995827674866
            ],
            "translation" : [
                0.00020225127809680998,
                157.2576446533203,
                -2.1004543668823317e-05
            ]
        },
        {
            "children" : [
                1,
                4,
                7
            ],
            "name" : "Bone",
            "rotation" : [
                -0.785855770111084,
                -3.957278750021942e-06,
                3.882707915181527e-06,
                0.6184098720550537
            ],
            "scale" : [
                0.004566291347146034,
                0.0045662918128073215,
                0.004566308576613665
            ],
            "translation" : [
                -0.0024085044860839844,
                0.0010401010513305664,
                -2.156267873942852e-05
            ]
        },
        {
            "mesh" : 0,
            "name" : "Bird",
            "skin" : 0
        },
        {
            "children" : [
                9,
                8
            ],
            "name" : "Armature.001"
        },
        {
            "children" : [
                10
            ],
            "name" : "Armature",
            "rotation" : [
                0.4891161322593689,
                -0.5106207132339478,
                -0.5106539130210876,
                0.48914676904678345
            ],
            "scale" : [
                0.21483701467514038,
                0.214836984872818,
                0.21483702957630157
            ],
            "translation" : [
                -0.059872716665267944,
                -1.9690618515014648,
                -0.03659335523843765
            ]
        },
        {
            "children" : [
                11
            ],
            "name" : "BezierCurve",
            "translation" : [
                0.001836240291595459,
                0.9605125784873962,
                -0.08159507811069489
            ]
        },
        {
            "children" : [
                12
            ],
            "name" : "Yup2Zup",
            "rotation" : [
                0.7071068286895752,
                0,
                0,
                0.7071067094802856
            ]
        }
    ],
    "animations" : [
        {
            "channels" : [
                {
                    "sampler" : 0,
                    "target" : {
                        "node" : 11,
                        "path" : "translation"
                    }
                },
                {
                    "sampler" : 1,
                    "target" : {
                        "node" : 11,
                        "path" : "rotation"
                    }
                },
                {
                    "sampler" : 2,
                    "target" : {
                        "node" : 11,
                        "path" : "scale"
                    }
                }
            ],
            "name" : "fly",
            "samplers" : [
                {
                    "input" : 8,
                    "interpolation" : "STEP",
                    "output" : 9
                },
                {
                    "input" : 8,
                    "interpolation" : "STEP",
                    "output" : 10
                },
                {
                    "input" : 8,
                    "interpolation" : "STEP",
                    "output" : 11
                }
            ]
        },
        {
            "channels" : [
                {
                    "sampler" : 0,
                    "target" : {
                        "node" : 8,
                        "path" : "translation"
                    }
                },
                {
                    "sampler" : 1,
                    "target" : {
                        "node" : 8,
                        "path" : "rotation"
                    }
                },
                {
                    "sampler" : 2,
                    "target" : {
                        "node" : 8,
                        "path" : "scale"
                    }
                },
                {
                    "sampler" : 3,
                    "target" : {
                        "node" : 1,
                        "path" : "translation"
                    }
                },
                {
                    "sampler" : 4,
                    "target" : {
                        "node" : 1,
                        "path" : "rotation"
                    }
                },
                {
                    "sampler" : 5,
                    "target" : {
                        "node" : 1,
                        "path" : "scale"
                    }
                },
                {
                    "sampler" : 6,
                    "target" : {
                        "node" : 4,
                        "path" : "translation"
                    }
                },
                {
                    "sampler" : 7,
                    "target" : {
                        "node" : 4,
                        "path" : "rotation"
                    }
                },
                {
                    "sampler" : 8,
                    "target" : {
                        "node" : 4,
                        "path" : "scale"
                    }
                },
                {
                    "sampler" : 9,
                    "target" : {
                        "node" : 3,
                        "path" : "translation"
                    }
                },
                {
                    "sampler" : 10,
                    "target" : {
                        "node" : 3,
                        "path" : "rotation"
                    }
                },
                {
                    "sampler" : 11,
                    "target" : {
                        "node" : 3,
                        "path" : "scale"
                    }
                },
                {
                    "sampler" : 12,
                    "target" : {
                        "node" : 7,
                        "path" : "translation"
                    }
                },
                {
                    "sampler" : 13,
                    "target" : {
                        "node" : 7,
                        "path" : "rotation"
                    }
                },
                {
                    "sampler" : 14,
                    "target" : {
                        "node" : 7,
                        "path" : "scale"
                    }
                },
                {
                    "sampler" : 15,
                    "target" : {
                        "node" : 6,
                        "path" : "translation"
                    }
                },
                {
                    "sampler" : 16,
                    "target" : {
                        "node" : 6,
                        "path" : "rotation"
                    }
                },
                {
                    "sampler" : 17,
                    "target" : {
                        "node" : 6,
                        "path" : "scale"
                    }
                }
            ],
            "name" : "fly2",
            "samplers" : [
                {
                    "input" : 8,
                    "interpolation" : "STEP",
                    "output" : 12
                },
                {
                    "input" : 8,
                    "interpolation" : "STEP",
                    "output" : 13
                },
                {
                    "input" : 8,
                    "interpolation" : "STEP",
                    "output" : 14
                },
                {
                    "input" : 8,
                    "interpolation" : "STEP",
                    "output" : 15
                },
                {
                    "input" : 8,
                    "interpolation" : "STEP",
                    "output" : 16
                },
                {
                    "input" : 8,
                    "interpolation" : "STEP",
                    "output" : 17
                },
                {
                    "input" : 8,
                    "interpolation" : "STEP",
                    "output" : 18
                },
                {
                    "input" : 8,
                    "interpolation" : "STEP",
                    "output" : 19
                },
                {
                    "input" : 8,
                    "interpolation" : "STEP",
                    "output" : 20
                },
                {
                    "input" : 8,
                    "interpolation" : "STEP",
                    "output" : 21
                },
                {
                    "input" : 8,
                    "interpolation" : "STEP",
                    "output" : 22
                },
                {
                    "input" : 8,
                    "interpolation" : "STEP",
                    "output" : 23
                },
                {
                    "input" : 8,
                    "interpolation" : "STEP",
                    "output" : 24
                },
                {
                    "input" : 8,
                    "interpolation" : "STEP",
                    "output" : 25
                },
                {
                    "input" : 8,
                    "interpolation" : "STEP",
                    "output" : 26
                },
                {
                    "input" : 8,
                    "interpolation" : "STEP",
                    "output" : 27
                },
                {
                    "input" : 8,
                    "interpolation" : "STEP",
                    "output" : 28
                },
                {
                    "input" : 8,
                    "interpolation" : "STEP",
                    "output" : 29
                }
            ]
        }
    ],
    "materials" : [
        {
            "name" : "Material.001_COLOR_0",
            "pbrMetallicRoughness" : {
                "baseColorTexture" : {
                    "index" : 0,
                    "texCoord" : 0
                },
                "metallicFactor" : 0,
                "roughnessFactor" : 0.5
            }
        }
    ],
    "meshes" : [
        {
            "name" : "Mesh.001",
            "primitives" : [
                {
                    "attributes" : {
                        "POSITION" : 0,
                        "NORMAL" : 1,
                        "TEXCOORD_0" : 2,
                        "COLOR_0" : 3,
                        "JOINTS_0" : 4,
                        "WEIGHTS_0" : 5
                    },
                    "indices" : 6,
                    "material" : 0
                }
            ]
        }
    ],
    "textures" : [
        {
            "source" : 0
        }
    ],
    "images" : [
        {
            "bufferView" : 7,
            "mimeType" : "image/png",
            "name" : "BirdBaseColor5.png"
        }
    ],
    "skins" : [
        {
            "inverseBindMatrices" : 7,
            "joints" : [
                8,
                1,
                0,
                4,
                3,
                2,
                7,
                6,
                5
            ],
            "name" : "Armature.001"
        }
    ],
    "accessors" : [
        {
            "bufferView" : 0,
            "componentType" : 5126,
            "count" : 495,
            "max" : [
                216.11228942871094,
                183.99725341796875,
                184.21058654785156
            ],
            "min" : [
                -216.11231994628906,
                -67.04578399658203,
                -182.71505737304688
            ],
            "type" : "VEC3"
        },
        {
            "bufferView" : 1,
            "componentType" : 5126,
            "count" : 495,
            "type" : "VEC3"
        },
        {
            "bufferView" : 2,
            "componentType" : 5126,
            "count" : 495,
            "type" : "VEC2"
        },
        {
            "bufferView" : 3,
            "componentType" : 5126,
            "count" : 495,
            "type" : "VEC4"
        },
        {
            "bufferView" : 4,
            "componentType" : 5123,
            "count" : 495,
            "type" : "VEC4"
        },
        {
            "bufferView" : 5,
            "componentType" : 5126,
            "count" : 495,
            "type" : "VEC4"
        },
        {
            "bufferView" : 6,
            "componentType" : 5123,
            "count" : 495,
            "type" : "SCALAR"
        },
        {
            "bufferView" : 8,
            "componentType" : 5126,
            "count" : 9,
            "type" : "MAT4"
        },
        {
            "bufferView" : 9,
            "componentType" : 5126,
            "count" : 3053,
            "max" : [
                5.331944447424919
            ],
            "min" : [
                0.033333336313565574
            ],
            "type" : "SCALAR"
        },
        {
            "bufferView" : 10,
            "componentType" : 5126,
            "count" : 3053,
            "type" : "VEC3"
        },
        {
            "bufferView" : 11,
            "componentType" : 5126,
            "count" : 3053,
            "type" : "VEC4"
        },
        {
            "bufferView" : 12,
            "componentType" : 5126,
            "count" : 3053,
            "type" : "VEC3"
        },
        {
            "bufferView" : 13,
            "componentType" : 5126,
            "count" : 3053,
            "type" : "VEC3"
        },
        {
            "bufferView" : 14,
            "componentType" : 5126,
            "count" : 3053,
            "type" : "VEC4"
        },
        {
            "bufferView" : 15,
            "componentType" : 5126,
            "count" : 3053,
            "type" : "VEC3"
        },
        {
            "bufferView" : 16,
            "componentType" : 5126,
            "count" : 3053,
            "type" : "VEC3"
        },
        {
            "bufferView" : 17,
            "componentType" : 5126,
            "count" : 3053,
            "type" : "VEC4"
        },
        {
            "bufferView" : 18,
            "componentType" : 5126,
            "count" : 3053,
            "type" : "VEC3"
        },
        {
            "bufferView" : 19,
            "componentType" : 5126,
            "count" : 3053,
            "type" : "VEC3"
        },
        {
            "bufferView" : 20,
            "componentType" : 5126,
            "count" : 3053,
            "type" : "VEC4"
        },
        {
            "bufferView" : 21,
            "componentType" : 5126,
            "count" : 3053,
            "type" : "VEC3"
        },
        {
            "bufferView" : 22,
            "componentType" : 5126,
            "count" : 3053,
            "type" : "VEC3"
        },
        {
            "bufferView" : 23,
            "componentType" : 5126,
            "count" : 3053,
            "type" : "VEC4"
        },
        {
            "bufferView" : 24,
            "componentType" : 5126,
            "count" : 3053,
            "type" : "VEC3"
        },
        {
            "bufferView" : 25,
            "componentType" : 5126,
            "count" : 3053,
            "type" : "VEC3"
        },
        {
            "bufferView" : 26,
            "componentType" : 5126,
            "count" : 3053,
            "type" : "VEC4"
        },
        {
            "bufferView" : 27,
            "componentType" : 5126,
            "count" : 3053,
            "type" : "VEC3"
        },
        {
            "bufferView" : 28,
            "componentType" : 5126,
            "count" : 3053,
            "type" : "VEC3"
        },
        {
            "bufferView" : 29,
            "componentType" : 5126,
            "count" : 3053,
            "type" : "VEC4"
        },
        {
            "bufferView" : 30,
            "componentType" : 5126,
            "count" : 3053,
            "type" : "VEC3"
        }
    ],
    "bufferViews" : [
        {
            "buffer" : 0,
            "byteLength" : 5940,
            "byteOffset" : 0
        },
        {
            "buffer" : 0,
            "byteLength" : 5940,
            "byteOffset" : 5940
        },
        {
            "buffer" : 0,
            "byteLength" : 3960,
            "byteOffset" : 11880
        },
        {
            "buffer" : 0,
            "byteLength" : 7920,
            "byteOffset" : 15840
        },
        {
            "buffer" : 0,
            "byteLength" : 3960,
            "byteOffset" : 23760
        },
        {
            "buffer" : 0,
            "byteLength" : 7920,
            "byteOffset" : 27720
        },
        {
            "buffer" : 0,
            "byteLength" : 990,
            "byteOffset" : 35640
        },
        {
            "buffer" : 0,
            "byteLength" : 23142,
            "byteOffset" : 36632
        },
        {
            "buffer" : 0,
            "byteLength" : 576,
            "byteOffset" : 59776
        },
        {
            "buffer" : 0,
            "byteLength" : 12212,
            "byteOffset" : 60352
        },
        {
            "buffer" : 0,
            "byteLength" : 36636,
            "byteOffset" : 72564
        },
        {
            "buffer" : 0,
            "byteLength" : 48848,
            "byteOffset" : 109200
        },
        {
            "buffer" : 0,
            "byteLength" : 36636,
            "byteOffset" : 158048
        },
        {
            "buffer" : 0,
            "byteLength" : 36636,
            "byteOffset" : 194684
        },
        {
            "buffer" : 0,
            "byteLength" : 48848,
            "byteOffset" : 231320
        },
        {
            "buffer" : 0,
            "byteLength" : 36636,
            "byteOffset" : 280168
        },
        {
            "buffer" : 0,
            "byteLength" : 36636,
            "byteOffset" : 316804
        },
        {
            "buffer" : 0,
            "byteLength" : 48848,
            "byteOffset" : 353440
        },
        {
            "buffer" : 0,
            "byteLength" : 36636,
            "byteOffset" : 402288
        },
        {
            "buffer" : 0,
            "byteLength" : 36636,
            "byteOffset" : 438924
        },
        {
            "buffer" : 0,
            "byteLength" : 48848,
            "byteOffset" : 475560
        },
        {
            "buffer" : 0,
            "byteLength" : 36636,
            "byteOffset" : 524408
        },
        {
            "buffer" : 0,
            "byteLength" : 36636,
            "byteOffset" : 561044
        },
        {
            "buffer" : 0,
            "byteLength" : 48848,
            "byteOffset" : 597680
        },
        {
            "buffer" : 0,
            "byteLength" : 36636,
            "byteOffset" : 646528
        },
        {
            "buffer" : 0,
            "byteLength" : 36636,
            "byteOffset" : 683164
        },
        {
            "buffer" : 0,
            "byteLength" : 48848,
            "byteOffset" : 719800
        },
        {
            "buffer" : 0,
            "byteLength" : 36636,
            "byteOffset" : 768648
        },
        {
            "buffer" : 0,
            "byteLength" : 36636,
            "byteOffset" : 805284
        },
        {
            "buffer" : 0,
            "byteLength" : 48848,
            "byteOffset" : 841920
        },
        {
            "buffer" : 0,
            "byteLength" : 36636,
            "byteOffset" : 890768
        }
    ],
    "buffers" : [
        {
            "byteLength" : 927404,
            "uri" : "data:application/octet-stream;base64,"
        }
    ]
}
