{
    "asset" : {
        "generator" : "Khronos glTF Blender I/O v0.9.36",
        "version" : "2.0"
    },
    "scene" : 0,
    "scenes" : [
        {
            "name" : "Scene",
            "nodes" : [
                0
            ]
        }
    ],
    "nodes" : [
        {
            "mesh" : 0,
            "name" : "Grass.007",
            "rotation" : [
                0.654733419418335,
                0.7079522609710693,
                0.250836580991745,
                0.08490422368049622
            ],
            "scale" : [
                0.20663394033908844,
                0.127452090382576,
                0.4078346788883209
            ],
            "translation" : [
                -0.02066974528133869,
                0.38242068886756897,
                0.20213574171066284
            ]
        }
    ],
    "animations" : [
        {
            "channels" : [
                {
                    "sampler" : 0,
                    "target" : {
                        "node" : 0,
                        "path" : "translation"
                    }
                },
                {
                    "sampler" : 1,
                    "target" : {
                        "node" : 0,
                        "path" : "rotation"
                    }
                },
                {
                    "sampler" : 2,
                    "target" : {
                        "node" : 0,
                        "path" : "scale"
                    }
                }
            ],
            "name" : "Action",
            "samplers" : [
                {
                    "input" : 4,
                    "interpolation" : "LINEAR",
                    "output" : 5
                },
                {
                    "input" : 4,
                    "interpolation" : "LINEAR",
                    "output" : 6
                },
                {
                    "input" : 4,
                    "interpolation" : "LINEAR",
                    "output" : 7
                }
            ]
        }
    ],
    "materials" : [
        {
            "doubleSided" : true,
            "name" : "Grass",
            "pbrMetallicRoughness" : {
                "baseColorFactor" : [
                    0.057744670659303665,
                    0.8000000715255737,
                    0.05090473219752312,
                    1
                ],
                "metallicFactor" : 0,
                "roughnessFactor" : 0.5
            }
        }
    ],
    "meshes" : [
        {
            "name" : "Plane.043",
            "primitives" : [
                {
                    "attributes" : {
                        "POSITION" : 0,
                        "NORMAL" : 1,
                        "TEXCOORD_0" : 2
                    },
                    "indices" : 3,
                    "material" : 0
                }
            ]
        }
    ],
    "accessors" : [
        {
            "bufferView" : 0,
            "componentType" : 5126,
            "count" : 104,
            "max" : [
                4.138798713684082,
                3.4169106483459473,
                1.65981125831604
            ],
            "min" : [
                -1.212203025817871,
                -3.381121873855591,
                -0.5432147979736328
            ],
            "type" : "VEC3"
        },
        {
            "bufferView" : 1,
            "componentType" : 5126,
            "count" : 104,
            "type" : "VEC3"
        },
        {
            "bufferView" : 2,
            "componentType" : 5126,
            "count" : 104,
            "type" : "VEC2"
        },
        {
            "bufferView" : 3,
            "componentType" : 5123,
            "count" : 240,
            "type" : "SCALAR"
        },
        {
            "bufferView" : 4,
            "componentType" : 5126,
            "count" : 40,
            "max" : [
                1.6666666666666667
            ],
            "min" : [
                0.041666666666666664
            ],
            "type" : "SCALAR"
        },
        {
            "bufferView" : 5,
            "componentType" : 5126,
            "count" : 40,
            "type" : "VEC3"
        },
        {
            "bufferView" : 6,
            "componentType" : 5126,
            "count" : 40,
            "type" : "VEC4"
        },
        {
            "bufferView" : 7,
            "componentType" : 5126,
            "count" : 40,
            "type" : "VEC3"
        }
    ],
    "bufferViews" : [
        {
            "buffer" : 0,
            "byteLength" : 1248,
            "byteOffset" : 0
        },
        {
            "buffer" : 0,
            "byteLength" : 1248,
            "byteOffset" : 1248
        },
        {
            "buffer" : 0,
            "byteLength" : 832,
            "byteOffset" : 2496
        },
        {
            "buffer" : 0,
            "byteLength" : 480,
            "byteOffset" : 3328
        },
        {
            "buffer" : 0,
            "byteLength" : 160,
            "byteOffset" : 3808
        },
        {
            "buffer" : 0,
            "byteLength" : 480,
            "byteOffset" : 3968
        },
        {
            "buffer" : 0,
            "byteLength" : 640,
            "byteOffset" : 4448
        },
        {
            "buffer" : 0,
            "byteLength" : 480,
            "byteOffset" : 5088
        }
    ],
    "buffers" : [
        {
            "byteLength" : 5568,
            "uri" : "data:application/octet-stream;base64,"
        }
    ]
}
